<?xml version="1.0" encoding="UTF-8" standalone="no"?>
<!-- Created with Inkscape (http://www.inkscape.org/) -->

<svg
   xmlns:dc="http://purl.org/dc/elements/1.1/"
   xmlns:cc="http://creativecommons.org/ns#"
   xmlns:rdf="http://www.w3.org/1999/02/22-rdf-syntax-ns#"
   xmlns:svg="http://www.w3.org/2000/svg"
   xmlns="http://www.w3.org/2000/svg"
   xmlns:sodipodi="http://sodipodi.sourceforge.net/DTD/sodipodi-0.dtd"
   xmlns:inkscape="http://www.inkscape.org/namespaces/inkscape"
   id="svg2982"
   version="1.1"
   inkscape:version="0.48.4 r9939"
   width="190"
   height="186"
   sodipodi:docname="Shri_symbol[1].jpg">
  <metadata
     id="metadata2988">
    <rdf:RDF>
      <cc:Work
         rdf:about="">
        <dc:format>image/svg+xml</dc:format>
        <dc:type
           rdf:resource="http://purl.org/dc/dcmitype/StillImage" />
        <dc:title></dc:title>
      </cc:Work>
    </rdf:RDF>
  </metadata>
  <defs
     id="defs2986" />
  <sodipodi:namedview
     pagecolor="#ffffff"
     bordercolor="#666666"
     borderopacity="1"
     objecttolerance="10"
     gridtolerance="10"
     guidetolerance="10"
     inkscape:pageopacity="0"
     inkscape:pageshadow="2"
     inkscape:window-width="1184"
     inkscape:window-height="778"
     id="namedview2984"
     showgrid="false"
     inkscape:zoom="2.8064516"
     inkscape:cx="86.569384"
     inkscape:cy="58.442822"
     inkscape:window-x="88"
     inkscape:window-y="-8"
     inkscape:window-maximized="1"
     inkscape:current-layer="svg2982" />
  <path
     style="fill:#fff;stroke:#fff;stroke-width:1.34839332;stroke-linecap:round;stroke-miterlimit:4;stroke-opacity:1;stroke-dashoffset:0"
     d="M 36.695387,97.831555 C 35.641936,95.772392 11.149797,84.874451 11.316401,73.196831 c 0.147948,-10.370118 8.918071,-21.09194 29.684695,-21.285757 9.196668,-0.08583 26.299313,7.271324 30.035634,19.048555 4.568751,14.401102 -11.985839,25.546772 -10.703324,26.240935 8.205483,4.441236 32.093022,10.093256 32.482669,9.519696 0.389656,-0.57356 -0.07249,-19.181927 0.146435,-29.230977 0.101063,-4.639079 3.129929,-7.550594 2.965878,-13.600921 L 72.252971,64.83067 67.607747,50.567549 147.22986,48.987263 c -0.0285,-2.795667 -2.37036,-12.590867 -5.44971,-17.211398 -0.43908,-0.658816 -10.95637,-17.969113 -29.03027,-18.357596 -11.64849,-0.250374 -19.140478,12.369084 -18.872196,21.774786 0.05336,1.870072 -3.359849,1.006951 -3.688549,0.908672 -1.744648,-0.521646 -4.774901,-10.319372 -2.365429,-18.73425 1.806982,-6.310693 7.820142,-11.0279972 13.274704,-12.4191747 6.39729,-1.6316216 17.74927,-2.9461856 26.52979,1.1810113 10.3283,4.8547134 17.6911,15.4614354 17.95504,15.8140004 1.13958,1.522214 8.49281,17.459194 9.19888,26.894057 l 25.21942,-0.500538 6.34896,13.555889 -32.1814,0.718336 c -0.0671,5.213721 2.57427,8.515709 2.71064,12.911129 0.91721,29.562123 2.46113,89.524443 2.46113,89.524443 l 11.86932,14.14695 0.1464,2.17173 -2.93737,-0.30122 -20.86398,-21.13125 c 0,0 -1.04046,-55.34019 -1.63582,-84.191164 -0.0906,-4.391677 3.76267,-7.753499 2.18595,-12.995268 l -46.11004,1.029243 c -1.0435,4.593063 2.55586,8.733778 2.69359,13.233184 0.95222,31.108635 1.61383,89.478495 1.61383,89.478495 l 11.1535,12.85215 0.68626,2.69222 -2.71599,-0.0559 -20.711667,-21.27055 -0.877187,-34.20461 c -0.122088,-1.42704 -0.785218,-1.87092 -2.841893,-0.56769 0,0 -54.467615,35.78022 -55.434307,36.51756 -0.966683,0.73735 -8.559456,-7.88256 -7.984145,-8.31611 0.575311,-0.43355 34.623455,-24.27526 54.972617,-38.60008 0.831458,-0.58529 -26.834259,-14.05346 -29.613413,-12.07975 -15.194611,10.79099 -42.679133,21.95187 -42.024844,21.41788 0.962791,-0.78577 -10.49474734,-6.24499 -9.3310262,-7.00113 C 7.971856,113.71855 25.901384,105.36849 36.698643,97.853561 m 8.670814,-5.563768 C 52.697984,86.06477 57.995773,78.024908 57.893055,73.677661 56.977264,65.152418 51.38359,59.060302 42.990959,59.111723 34.598328,59.163143 26.717104,66.515584 26.75012,74.709788 26.77439,80.730389 43.407294,90.5214 45.284739,92.22369"
     id="rect3006"
     inkscape:connector-curvature="0"
     sodipodi:nodetypes="csssszsccccssssssssccccscccccsccsccccccczzssssccczsc" />
</svg>
